# xmcd
#
# Track frame offsets: 
#        150
#        14066
#        26148
#        39618
#        55815
#        77654
#        97225
#        110711
#        132678
#
# Disc length: 2005 seconds
#
# Revision: 0
# Processed by: cddbd v1.5.1PL2 Copyright (c) Steve Scherf et al.
# Submitted via: ExactAudioCopy v0.95b4
#
DISCID=8307d309
DTITLE=Jo-El Sonnier - Have a Little Faith (tape)
DYEAR=1989
DGENRE=Country
TTITLE0=The Scene of the Crime
TTITLE1=If Your Heart Should Ever Roll This Way Again
TTITLE2=Ooh, Ooh, Ooh
TTITLE3=Have a Little Faith in Me
TTITLE4=I'll Never Get Over You
TTITLE5=the Hurt in My Heart
TTITLE6=Solid Gold Plated Fool
TTITLE7=Walls
TTITLE8=Evangeline Special
EXTD=
EXTT0=
EXTT1=
EXTT2=
EXTT3=
EXTT4=
EXTT5=
EXTT6=
EXTT7=
EXTT8=
PLAYORDER=
